<?xml version="1.0" encoding="UTF-8" standalone="no"?>
<svg xmlns="http://www.w3.org/2000/svg" version="1.1" x="0px" y="0px" viewBox="0 0 747.69 390" width="747.69" height="390">
<style type="text/css">
	.st0{fill:#4D4B4B;}
	.st1{fill:#E60400;}
	.st2{fill:#C4C4C4;}
	.st3{fill:#6E0807;}
	.st4{fill:#FF0400;}
	.st5{fill:#7D7D7D;}
	.st6{fill:#FFFFFF;}
</style>
<g id="g110" transform="translate(-72.68,-124.96)">
	<g id="g40">
		<g id="g10">
			<polygon class="st1" points="396.92,210.89 387.97,187.38 316.66,214.52 360.97,330.92 422.38,307.54 410.43,276.14 443.45,263.57 420.05,202.08 " id="polygon8" />
		</g>
		<g id="g14">
			<path class="st2" d="m 265.82,335.11 -35.89,-94.26 c 1.47,-1.4 2.67,-3.09 3.53,-5 1.74,-3.87 1.86,-8.19 0.35,-12.16 -1.51,-3.97 -4.48,-7.11 -8.35,-8.85 -3.87,-1.74 -8.19,-1.86 -12.16,-0.35 -8.2,3.12 -12.32,12.32 -9.2,20.51 1.51,3.97 4.47,7.11 8.35,8.85 1.91,0.85 3.92,1.32 5.95,1.39 l 35.88,94.26 c 7.46,19.6 -2.41,41.62 -22.01,49.08 -19.6,7.46 -41.62,-2.42 -49.08,-22.02 l -6.81,-17.89 -10.47,-4.08 24.54,-9.34 -42.02,-25.29 13.72,36.06 h 0.01 l 9.49,24.93 c 9.89,25.96 39.05,39.04 65.01,29.16 25.96,-9.88 39.04,-39.04 29.16,-65 z m -44.44,-99.38 c -1.7,0.65 -3.56,0.6 -5.22,-0.15 -1.67,-0.75 -2.94,-2.1 -3.59,-3.8 -1.34,-3.53 0.43,-7.48 3.95,-8.82 0.8,-0.3 1.62,-0.45 2.43,-0.45 2.75,0 5.35,1.68 6.39,4.4 1.34,3.53 -0.44,7.48 -3.96,8.82 z" id="path12" />
		</g>
		<polygon class="st3" points="369.13,312.73 360.97,330.92 316.66,214.52 329.84,209.51 " id="polygon16" />
		
			<rect x="220.39" y="256.15" transform="rotate(-20.83636,231.3165,259.1212)" class="st4" width="21.77" height="5.87" id="rect18" />
		
			<rect x="246.56" y="324.9" transform="rotate(-20.83636,257.4882,327.8722)" class="st4" width="21.77" height="5.87" id="rect20" />
		
			<rect x="430.16" y="278.84" transform="rotate(-20.83636,440.7369,289.37)" class="st1" width="21.01" height="21.01" id="rect22" />
		<g id="g38">
			<circle class="st4" cx="278.47" cy="311.98" r="3.63" id="circle24" />
			
				<ellipse transform="rotate(-20.83636,303.5504,255.9424)" class="st4" cx="303.5" cy="255.91" id="ellipse26" r="3.63" />
			<path class="st4" d="m 290.98,209.21 2.16,5.66 c 0.67,1.76 2.11,3.12 3.91,3.68 l 12.16,3.79 c 4.64,1.45 8.37,4.94 10.1,9.49 l 10.89,28.61 c 0.15,0.38 0.43,0.7 0.8,0.87 1.69,0.78 3.09,2.19 3.8,4.07 1.55,4.07 -0.74,8.66 -5.08,9.79 -3.33,0.86 -6.89,-0.76 -8.43,-3.84 -1.04,-2.08 -1.01,-4.35 -0.17,-6.27 0.16,-0.37 0.15,-0.79 0.01,-1.17 l -10.89,-28.6 c -0.67,-1.76 -2.11,-3.12 -3.91,-3.68 l -7.75,-2.41 7.22,18.97 c 0.15,0.4 0.44,0.72 0.83,0.9 1.68,0.78 3.07,2.19 3.78,4.06 1.55,4.07 -0.74,8.66 -5.08,9.79 -3.33,0.86 -6.89,-0.76 -8.43,-3.84 -1.03,-2.07 -1.01,-4.34 -0.18,-6.25 0.17,-0.38 0.16,-0.82 0.01,-1.21 l -12.67,-33.28 -2.16,-5.66 -31.68,12.06 21.91,57.57 c 0.55,1.44 1.62,2.62 3,3.31 l 17.76,8.85 c 3.56,1.77 6.32,4.82 7.74,8.54 l 5.35,14.05 c 0.19,0.49 0.55,0.88 1.02,1.11 1.62,0.8 2.95,2.18 3.64,3.99 1.55,4.07 -0.74,8.66 -5.08,9.79 -3.33,0.86 -6.89,-0.76 -8.43,-3.84 -1.01,-2.02 -1.01,-4.23 -0.24,-6.11 0.2,-0.48 0.2,-1.01 0.02,-1.5 l -5.35,-14.05 c -0.55,-1.44 -1.62,-2.62 -3,-3.31 l -17.76,-8.85 c -3.56,-1.77 -6.32,-4.82 -7.74,-8.54 l -21.91,-57.57 -10.79,4.11 44.31,116.4 10.79,-4.11 -9.36,-24.59 c -0.22,-0.59 -0.67,-1.06 -1.23,-1.35 -1.76,-0.91 -3.16,-2.53 -3.73,-4.64 -0.9,-3.32 0.69,-6.9 3.75,-8.47 3.99,-2.04 8.75,-0.14 10.3,3.94 0.67,1.76 0.62,3.61 0,5.24 -0.23,0.6 -0.25,1.25 -0.02,1.84 l 9.36,24.59 28.77,-10.95 -15.05,-39.52 c -0.55,-1.44 -1.62,-2.62 -3,-3.31 l -17.76,-8.85 c -3.56,-1.77 -6.32,-4.82 -7.74,-8.54 l -5.81,-15.27 c -0.23,-0.61 -0.7,-1.1 -1.28,-1.4 -1.53,-0.81 -2.79,-2.15 -3.46,-3.9 -1.55,-4.07 0.74,-8.66 5.08,-9.79 3.33,-0.86 6.89,0.76 8.43,3.84 0.98,1.95 1.01,4.08 0.31,5.92 -0.23,0.61 -0.25,1.27 -0.02,1.88 l 5.81,15.28 c 0.55,1.44 1.62,2.62 3,3.31 l 17.76,8.85 c 3.56,1.77 6.32,4.82 7.74,8.54 l 15.05,39.52 11.07,-4.21 -10.55,-27.72 c -0.21,-0.55 -0.62,-0.99 -1.14,-1.26 -1.79,-0.91 -3.21,-2.53 -3.79,-4.67 -0.9,-3.32 0.69,-6.9 3.75,-8.47 3.99,-2.04 8.75,-0.14 10.3,3.94 0.68,1.78 0.62,3.66 -0.02,5.3 -0.22,0.55 -0.23,1.16 -0.02,1.72 l 10.55,27.72 16.61,-6.32 -44.31,-116.4 z" id="path28" />
			<path class="st4" d="m 331.43,266.69 c -0.71,-1.87 -2.81,-2.82 -4.69,-2.1 -1.87,0.71 -2.82,2.81 -2.1,4.69 0.71,1.87 2.81,2.82 4.69,2.1 1.87,-0.72 2.82,-2.82 2.1,-4.69 z" id="path30" />
			<path class="st4" d="m 307.34,323.52 c -0.71,-1.87 -2.81,-2.82 -4.69,-2.1 -1.87,0.71 -2.82,2.81 -2.1,4.69 0.71,1.87 2.81,2.82 4.69,2.1 1.88,-0.72 2.82,-2.81 2.1,-4.69 z" id="path32" />
			<path class="st4" d="m 272.77,248 c 0.71,1.87 2.81,2.82 4.69,2.1 1.87,-0.71 2.82,-2.81 2.1,-4.69 -0.71,-1.87 -2.81,-2.82 -4.69,-2.1 -1.87,0.71 -2.82,2.81 -2.1,4.69 z" id="path34" />
			<path class="st4" d="m 338.65,285.66 c -0.71,-1.87 -2.81,-2.82 -4.69,-2.1 -1.87,0.71 -2.82,2.81 -2.1,4.69 0.71,1.87 2.81,2.82 4.69,2.1 1.88,-0.71 2.82,-2.81 2.1,-4.69 z" id="path36" />
		</g>
	</g>
	<g id="g108">
		<g id="g90">
			<g id="g44">
				<path class="st5" d="m 319.95,354.28 h -18.6 v 51.65 h 8.3 v -14.45 h 10.3 c 10.26,0 18.6,-8.34 18.6,-18.6 0,-10.25 -8.35,-18.6 -18.6,-18.6 z m 0,28.72 h -10.3 v -20.41 h 10.3 c 5.68,0 10.3,4.62 10.3,10.3 0,5.57 -4.62,10.11 -10.3,10.11 z" id="path42" />
			</g>
			<g id="g48">
				<polygon class="st5" points="374.59,375.96 353.99,375.96 353.99,354.28 345.69,354.28 345.69,405.93 353.99,405.93 353.99,384.26 374.59,384.26 374.59,405.93 382.88,405.93 382.88,354.28 374.59,354.28 " id="polygon46" />
			</g>
			<g id="g52">
				<rect x="392.58" y="354.28" class="st5" width="8.3" height="51.65" id="rect50" />
			</g>
			<g id="g56">
				<path class="st5" d="m 430.81,375.96 h -7.22 c -3.69,0 -6.69,-3 -6.69,-6.69 0,-3.69 3,-6.69 6.69,-6.69 h 16.16 l 4.15,-8.3 h -20.31 c -8.26,0 -14.99,6.72 -14.99,14.99 0,8.26 6.72,14.99 14.99,14.99 h 7.22 c 3.69,0 6.69,3 6.69,6.69 0,3.69 -3,6.69 -6.69,6.69 h -16.16 l -4.15,8.3 h 20.31 c 8.26,0 14.99,-6.72 14.99,-14.99 0,-8.27 -6.72,-14.99 -14.99,-14.99 z" id="path54" />
			</g>
			<g id="g60">
				<polygon class="st5" points="482.42,375.96 461.82,375.96 461.82,354.28 453.52,354.28 453.52,405.93 461.82,405.93 461.82,384.26 482.42,384.26 482.42,405.93 490.71,405.93 490.71,354.28 482.42,354.28 " id="polygon58" />
			</g>
			<g id="g64">
				<path class="st5" d="m 565.92,405.93 c 5.02,0 9.8,-1.94 13.7,-5.5 l -6.31,-7.21 c -2.19,1.53 -4.73,2.35 -7.39,2.35 -7.67,0 -13.91,-6.94 -13.91,-15.46 0,-8.52 6.24,-15.46 13.91,-15.46 2.66,0 5.2,0.82 7.39,2.35 l 6.31,-7.21 c -3.9,-3.56 -8.68,-5.5 -13.7,-5.5 -12.25,0 -22.21,11.58 -22.21,25.82 0,14.24 9.96,25.82 22.21,25.82 z" id="path62" />
			</g>
			<g id="g68">
				<polygon class="st5" points="616.53,375.96 595.93,375.96 595.93,354.28 587.64,354.28 587.64,405.93 595.93,405.93 595.93,384.26 616.53,384.26 616.53,405.93 624.83,405.93 624.83,354.28 616.53,354.28 " id="polygon66" />
			</g>
			<g id="g72">
				<rect x="634.53" y="354.28" class="st5" width="8.3" height="51.65" id="rect70" />
			</g>
			<g id="g76">
				<path class="st5" d="m 671.13,354.28 h -18.6 v 51.65 h 8.3 v -14.45 h 10.3 c 10.25,0 18.6,-8.34 18.6,-18.6 0,-10.25 -8.34,-18.6 -18.6,-18.6 z m 0,28.72 h -10.3 v -20.41 h 10.3 c 5.68,0 10.3,4.62 10.3,10.3 0,5.57 -4.62,10.11 -10.3,10.11 z" id="path74" />
			</g>
			<g id="g80">
				<path class="st5" d="m 717.1,375.96 h -7.22 c -3.69,0 -6.69,-3 -6.69,-6.69 0,-3.69 3,-6.69 6.69,-6.69 h 16.16 l 4.15,-8.3 h -20.31 c -8.26,0 -14.99,6.72 -14.99,14.99 0,8.26 6.72,14.99 14.99,14.99 h 7.22 c 3.69,0 6.69,3 6.69,6.69 0,3.69 -3,6.69 -6.69,6.69 h -16.16 l -4.15,8.3 h 20.31 c 8.26,0 14.99,-6.72 14.99,-14.99 0,-8.27 -6.73,-14.99 -14.99,-14.99 z" id="path78" />
			</g>
			<rect x="507.67" y="354.36" class="st5" width="21.92" height="3.46" id="rect82" />
			<rect x="507.67" y="402.5" class="st5" width="21.92" height="3.46" id="rect84" />
			<g id="g88">
				<polygon class="st4" points="524.81,388.25 513.18,364.99 507.77,364.99 507.77,395.23 512.45,395.23 512.45,371.96 524.08,395.23 529.49,395.23 529.49,364.99 524.81,364.99 " id="polygon86" />
			</g>
		</g>
		<g id="g106">
			<path class="st5" d="m 412.82,426.59 v 2.31 c -0.66,-0.32 -1.21,-0.48 -1.66,-0.48 -0.61,0 -1.13,0.15 -1.57,0.45 -0.44,0.3 -0.8,0.76 -1.08,1.39 -0.28,0.63 -0.49,1.42 -0.63,2.38 -0.14,0.96 -0.2,2.1 -0.2,3.41 0,4.72 1.21,7.08 3.62,7.08 0.42,0 0.93,-0.13 1.52,-0.4 v 2.36 c -0.62,0.35 -1.31,0.52 -2.08,0.52 -3.87,0 -5.8,-3.16 -5.8,-9.48 0,-3.41 0.47,-5.95 1.42,-7.62 0.94,-1.67 2.39,-2.5 4.34,-2.5 0.71,0.01 1.42,0.2 2.12,0.58 z" id="path92" />
			<path class="st5" d="m 432.87,426.28 h 8.37 v 2.25 h -2.88 v 16.85 h -2.52 v -16.85 h -2.97 z" id="path94" />
			<path class="st5" d="m 462.08,426.28 h 6.88 v 2.18 h -4.31 v 6.04 h 3.88 v 2.18 h -3.88 v 8.71 h -2.57 z" id="path96" />
			<path class="st5" d="m 513.47,426.28 h 8.37 v 2.25 h -2.88 v 16.85 h -2.52 v -16.85 h -2.97 z" id="path98" />
			<path class="st5" d="m 542.67,426.28 h 6.84 v 2.18 h -4.27 v 6.05 h 3.79 v 2.18 h -3.79 v 6.52 h 4.27 v 2.18 h -6.84 z" id="path100" />
			<path class="st5" d="m 574,426.28 h 2 l 4.09,19.1 h -2.55 l -0.72,-3.72 h -3.79 l -0.73,3.72 h -2.47 z m 2.46,13.39 -0.57,-3.04 c -0.38,-2.07 -0.69,-4.28 -0.93,-6.63 -0.12,1.15 -0.26,2.31 -0.45,3.48 -0.18,1.18 -0.4,2.42 -0.64,3.74 l -0.47,2.45 z" id="path102" />
			<path class="st5" d="m 601.92,426.28 h 2.2 l 1.68,7.79 c 0.21,0.97 0.39,1.95 0.56,2.93 0.17,0.98 0.32,2 0.46,3.07 0.02,-0.14 0.03,-0.25 0.04,-0.33 0.01,-0.08 0.02,-0.13 0.02,-0.17 l 0.36,-2.19 0.32,-2.08 0.28,-1.37 1.5,-7.66 h 2.23 l 1.76,19.1 h -2.46 l -0.43,-6.48 c -0.02,-0.33 -0.03,-0.61 -0.04,-0.85 -0.01,-0.24 -0.02,-0.44 -0.02,-0.59 l -0.11,-2.56 -0.06,-2.35 c 0,-0.02 0,-0.05 -0.01,-0.1 0,-0.05 -0.01,-0.13 -0.02,-0.22 l -0.06,0.38 c -0.07,0.45 -0.13,0.85 -0.18,1.19 -0.05,0.34 -0.1,0.62 -0.14,0.85 l -0.32,1.74 -0.12,0.66 -1.61,8.34 h -1.73 l -1.51,-7.2 c -0.21,-0.95 -0.39,-1.91 -0.55,-2.89 -0.16,-0.98 -0.31,-2 -0.44,-3.07 l -0.74,13.16 h -2.42 z" id="path104" />
		</g>
	</g>
</g>
</svg>
